# xmcd CD database file
#
# Track frame offsets:
#	150
#	20622
#	40535
#	60395
#	80805
#	101572
#	122335
#	144855
#	164505
#	185205
#	203210
#	224285
#	243035
#	254335
#	272890
#
# Disc length: 3837 seconds
#
# Revision: 0
# Processed by: cddbd v1.5.1PL0 Copyright (c) Steve Scherf et al.
# Submitted via: CDex 1.51
#
DISCID=d10efb0f
DTITLE=林 哲司 - 林 哲司 ソングブック -Hits and Rare Tracks- Disc-1
DYEAR=2002
DGENRE=JPop
TTITLE0=悲しみがいっぱい/林 哲司
TTITLE1=悲しみがとまらない/杏里
TTITLE2=悲しい色やね/上田正樹
TTITLE3=September/竹内まりや
TTITLE4=真夜中のドア/松原みき
TTITLE5=SUMMER SUSPITION/杉山清貴&オメガトライブ
TTITLE6=君のハートはマリンブルー/杉山清貴&オメガトライブ
TTITLE7=してみたい/中川勝彦
TTITLE8=パズル・ナイト/中村雅俊
TTITLE9=ふたりの夏物語/杉山清貴&オメガトライブ
TTITLE10=思い出のビーチクラブ/稲垣潤一
TTITLE11=Strangers' Dream/ジャッキー・リン&パラビオン
TTITLE12=この愛をあなたに/草刈正雄
TTITLE13=君の歌がきこえる/布施 明
TTITLE14=それが恋の終わりなら/黒沢裕一
EXTD=YEAR: 2002
EXTT0=
EXTT1=
EXTT2=
EXTT3=
EXTT4=
EXTT5=
EXTT6=
EXTT7=
EXTT8=
EXTT9=
EXTT10=
EXTT11=
EXTT12=
EXTT13=
EXTT14=
PLAYORDER=
